<?xml version="1.0" encoding="utf-8"?>
<!-- Generator: Adobe Illustrator 27.5.0, SVG Export Plug-In . SVG Version: 6.00 Build 0)  -->
<svg version="1.1" id="Layer_1" xmlns="http://www.w3.org/2000/svg" xmlns:xlink="http://www.w3.org/1999/xlink" x="0px" y="0px"
	 viewBox="0 0 199.459 221.023" style="enable-background:new 0 0 199.459 221.023;" xml:space="preserve">
<g>
	<g>
		<path style="fill:#FFFFFF;" d="M174.27,24.899l-0.961-0.204c-0.795-0.174-2.233-0.488-4.042-0.568
			c-1.041-0.088-2.004-0.103-3.047-0.036l-0.241,0.01c-0.715,0.026-1.764,0.064-3.011,0.307c-0.25,0.039-0.497,0.081-0.743,0.126
			c-3.113-2.353-6.825-3.6-10.896-3.6c-8.797,0-18.082,5.695-29.221,17.926c-7.844,8.618-13.513,16.278-17.529,22.475
			c-0.219-0.037-0.437-0.069-0.656-0.097c-2.546-9.796-8.229-21.872-20.679-32.01c-11.44-9.313-22.986-14.441-32.509-14.441
			c-7.951,0-14.248,3.511-17.333,9.647c-0.623,1.145-1.141,2.391-1.54,3.709c-0.503,1.58-0.784,3.268-0.845,4.979
			c-4.944,4.975-11.302,13.789-9.527,25.071c0.316,2,0.796,3.793,1.479,5.518c0.29,0.724,0.622,1.455,0.986,2.172
			c0.884,1.785,1.904,3.425,3.047,4.935h-3.254c-5.246,0-9.5,4.253-9.5,9.5v125.678c0,5.247,4.254,9.5,9.5,9.5H174.08
			c5.246,0,9.5-4.253,9.5-9.5V80.319c0-2.128-0.699-4.093-1.882-5.676c3.641-2.965,6.578-6.262,8.702-9.83
			c4.423-7.428,5.262-15.703,2.427-23.927C189.817,32.14,183.232,26.47,174.27,24.899z"/>
		<path style="fill:#F1F1F1;" d="M173.428,24.058l-0.96-0.204c-0.795-0.174-2.234-0.489-4.042-0.569
			c-1.041-0.088-2.004-0.103-3.046-0.036l-0.242,0.01c-0.716,0.026-1.764,0.064-3.012,0.307c-0.249,0.04-0.497,0.082-0.743,0.126
			c-3.113-2.353-6.825-3.6-10.896-3.6c-8.796,0-18.081,5.696-29.221,17.927c-7.844,8.618-13.513,16.277-17.529,22.474
			c-0.218-0.037-0.437-0.069-0.656-0.097c-2.545-9.796-8.229-21.872-20.677-32.01c-11.441-9.313-22.987-14.441-32.511-14.441
			c-7.951,0-14.151,3.56-17.333,9.646c-0.604,1.155-1.131,2.394-1.539,3.709c-0.492,1.583-0.785,3.268-0.845,4.979
			c-4.945,4.975-11.302,13.79-9.528,25.072c0.316,2,0.796,3.792,1.48,5.517c0.291,0.724,0.626,1.454,0.986,2.173
			c0.893,1.781,1.905,3.424,3.049,4.934h-3.255c-5.247,0-9.501,4.254-9.501,9.501v125.677c0,5.247,4.254,9.5,9.501,9.5h150.331
			c5.245,0,9.499-4.253,9.499-9.5V79.478c0-2.128-0.699-4.093-1.881-5.677c3.641-2.965,6.577-6.262,8.702-9.83
			c4.422-7.428,5.261-15.703,2.427-23.926C188.975,31.298,182.389,25.628,173.428,24.058z"/>
		<path style="fill:#E2E2E2;" d="M172.586,23.215l-0.96-0.204c-0.795-0.174-2.234-0.488-4.042-0.568
			c-1.041-0.089-2.004-0.104-3.047-0.036l-0.241,0.01c-0.715,0.026-1.764,0.064-3.012,0.306c-0.249,0.04-0.497,0.082-0.742,0.126
			c-3.115-2.353-6.826-3.6-10.897-3.6c-8.797,0-18.082,5.695-29.222,17.927c-7.844,8.617-13.512,16.277-17.529,22.474
			c-0.218-0.038-0.436-0.069-0.656-0.097c-2.545-9.796-8.228-21.872-20.678-32.01c-11.44-9.313-22.987-14.44-32.51-14.44
			c-7.95,0-14.149,3.561-17.333,9.646c-0.604,1.155-1.131,2.394-1.54,3.709c-0.491,1.582-0.783,3.267-0.845,4.978
			c-4.944,4.975-11.301,13.789-9.527,25.071c0.316,2,0.797,3.793,1.48,5.518c0.29,0.725,0.625,1.453,0.985,2.173
			c0.892,1.782,1.905,3.425,3.048,4.935h-3.254c-5.247,0-9.5,4.254-9.5,9.501v125.677c0,5.247,4.253,9.5,9.5,9.5h150.33
			c5.247,0,9.501-4.253,9.501-9.5V78.636c0-2.128-0.7-4.093-1.882-5.676c3.64-2.966,6.578-6.263,8.701-9.831
			c4.424-7.427,5.262-15.702,2.428-23.927C188.134,30.456,181.547,24.786,172.586,23.215z"/>
		<path style="fill:#D4D4D4;" d="M171.744,22.373l-0.961-0.204c-0.795-0.174-2.233-0.488-4.042-0.568
			c-1.041-0.088-2.004-0.104-3.046-0.036l-0.241,0.01c-0.716,0.026-1.764,0.064-3.012,0.307c-0.251,0.04-0.497,0.082-0.743,0.127
			c-3.113-2.354-6.825-3.601-10.896-3.601c-8.797,0-18.081,5.696-29.221,17.927c-7.844,8.617-13.513,16.277-17.529,22.474
			c-0.218-0.037-0.437-0.069-0.656-0.097c-2.546-9.797-8.229-21.871-20.678-32.01c-11.441-9.312-22.987-14.441-32.51-14.441
			c-7.951,0-14.151,3.561-17.333,9.647c-0.604,1.155-1.131,2.393-1.54,3.709c-0.493,1.583-0.784,3.267-0.845,4.979
			c-4.945,4.974-11.302,13.789-9.527,25.071c0.316,1.999,0.796,3.793,1.479,5.517c0.29,0.724,0.625,1.452,0.986,2.172
			c0.893,1.781,1.904,3.425,3.048,4.936h-3.255c-5.246,0-9.5,4.253-9.5,9.5v125.678c0,5.247,4.254,9.5,9.5,9.5h150.331
			c5.246,0,9.5-4.253,9.5-9.5V77.793c0-2.128-0.699-4.093-1.883-5.676c3.642-2.966,6.579-6.263,8.703-9.831
			c4.423-7.427,5.262-15.702,2.428-23.926C187.291,29.614,180.704,23.944,171.744,22.373z"/>
		<path style="fill:#C5C5C5;" d="M170.901,21.531l-0.959-0.204c-0.796-0.174-2.234-0.488-4.042-0.568
			c-1.041-0.088-2.005-0.103-3.048-0.036l-0.241,0.01c-0.714,0.026-1.763,0.064-3.012,0.307c-0.249,0.04-0.496,0.082-0.743,0.126
			c-3.112-2.352-6.825-3.6-10.896-3.6c-8.797,0-18.082,5.695-29.221,17.926c-7.845,8.617-13.513,16.278-17.53,22.475
			c-0.217-0.037-0.436-0.069-0.654-0.097C98.01,48.074,92.326,36,79.876,25.86c-11.44-9.312-22.985-14.441-32.51-14.441
			c-7.95,0-14.146,3.562-17.332,9.647c-0.604,1.156-1.133,2.394-1.541,3.709c-0.492,1.583-0.783,3.268-0.843,4.979
			c-4.946,4.974-11.302,13.788-9.528,25.07c0.315,2,0.791,3.795,1.478,5.518c0.29,0.725,0.628,1.453,0.987,2.172
			c0.892,1.781,1.904,3.425,3.047,4.935H20.38c-5.245,0-9.499,4.253-9.499,9.5v125.678c0,5.247,4.254,9.5,9.499,9.5h150.331
			c5.247,0,9.501-4.253,9.501-9.5V76.952c0-2.128-0.7-4.093-1.881-5.677c3.641-2.965,6.576-6.262,8.702-9.83
			c4.421-7.427,5.26-15.703,2.426-23.927C186.448,28.772,179.862,23.102,170.901,21.531z"/>
		<path style="fill:#B7B7B7;" d="M170.06,20.689l-0.96-0.203c-0.795-0.175-2.233-0.489-4.042-0.569
			c-1.041-0.088-2.004-0.103-3.046-0.036l-0.242,0.01c-0.715,0.026-1.764,0.064-3.011,0.307c-0.25,0.039-0.498,0.082-0.743,0.126
			c-3.114-2.353-6.825-3.6-10.896-3.6c-8.797,0-18.082,5.696-29.221,17.927c-7.845,8.618-13.513,16.277-17.53,22.474
			c-0.218-0.037-0.436-0.069-0.655-0.096c-2.546-9.796-8.229-21.872-20.678-32.01c-11.44-9.313-22.987-14.441-32.511-14.441
			c-7.95,0-14.151,3.56-17.332,9.647c-0.604,1.155-1.131,2.394-1.54,3.709c-0.492,1.583-0.784,3.268-0.845,4.979
			c-4.944,4.974-11.302,13.789-9.527,25.071c0.316,2,0.796,3.793,1.479,5.518c0.29,0.724,0.625,1.454,0.986,2.173
			c0.893,1.782,1.905,3.425,3.048,4.935H19.54c-5.247,0-9.501,4.254-9.501,9.5v125.678c0,5.247,4.254,9.5,9.501,9.5h150.33
			c5.246,0,9.5-4.253,9.5-9.5V76.109c0-2.128-0.699-4.093-1.882-5.676c3.641-2.965,6.578-6.262,8.702-9.83
			c4.423-7.428,5.262-15.703,2.427-23.927C185.607,27.93,179.021,22.26,170.06,20.689z"/>
		<path style="fill:#A8A8A8;" d="M169.218,19.847l-0.96-0.204c-0.796-0.174-2.234-0.488-4.042-0.568
			c-1.041-0.088-2.004-0.103-3.047-0.035l-0.24,0.009c-0.717,0.026-1.765,0.064-3.012,0.307c-0.25,0.039-0.498,0.082-0.744,0.126
			c-3.113-2.353-6.825-3.6-10.896-3.6c-8.797,0-18.081,5.696-29.221,17.927c-7.844,8.618-13.512,16.278-17.529,22.474
			c-0.218-0.037-0.437-0.068-0.656-0.096c-2.545-9.796-8.229-21.872-20.678-32.01C66.751,14.864,55.206,9.735,45.684,9.735
			c-7.951,0-14.151,3.561-17.334,9.647c-0.604,1.155-1.131,2.394-1.54,3.709c-0.492,1.583-0.783,3.268-0.844,4.979
			c-4.945,4.975-11.302,13.789-9.528,25.071c0.316,2,0.796,3.793,1.479,5.518c0.291,0.724,0.625,1.453,0.986,2.173
			c0.892,1.781,1.904,3.424,3.048,4.935h-3.255c-5.246,0-9.499,4.253-9.499,9.5v125.678c0,5.247,4.253,9.499,9.499,9.499h150.331
			c5.247,0,9.5-4.253,9.5-9.499V75.267c0-2.128-0.699-4.092-1.881-5.676c3.64-2.966,6.577-6.263,8.702-9.831
			c4.422-7.428,5.261-15.703,2.427-23.927C184.766,27.088,178.179,21.418,169.218,19.847z"/>
		<path style="fill:#9A9A9A;" d="M168.376,19.005l-0.961-0.204c-0.794-0.173-2.233-0.488-4.041-0.568
			c-1.041-0.088-2.004-0.104-3.048-0.036l-0.24,0.01c-0.716,0.026-1.765,0.064-3.012,0.307c-0.25,0.04-0.497,0.082-0.743,0.126
			c-3.113-2.354-6.826-3.6-10.896-3.6c-8.797,0-18.082,5.696-29.222,17.927c-7.844,8.618-13.512,16.277-17.53,22.475
			c-0.218-0.037-0.435-0.069-0.654-0.097c-2.547-9.796-8.23-21.871-20.679-32.01C65.909,14.023,54.363,8.894,44.841,8.894
			c-7.95,0-14.149,3.561-17.334,9.647c-0.604,1.155-1.13,2.395-1.539,3.709c-0.492,1.584-0.783,3.268-0.844,4.979
			c-4.946,4.974-11.303,13.79-9.528,25.071c0.316,2,0.796,3.793,1.481,5.518c0.289,0.724,0.626,1.453,0.985,2.173
			c0.892,1.781,1.904,3.425,3.047,4.936h-3.253c-5.248,0-9.5,4.252-9.5,9.499v125.678c0,5.247,4.252,9.5,9.5,9.5h150.331
			c5.246,0,9.499-4.253,9.499-9.5V74.425c0-2.127-0.699-4.092-1.882-5.676c3.642-2.966,6.578-6.263,8.703-9.831
			c4.423-7.427,5.261-15.702,2.426-23.927C183.923,26.246,177.336,20.576,168.376,19.005z"/>
		<path style="fill:#8B8B8B;" d="M167.534,18.163l-0.961-0.204c-0.795-0.173-2.233-0.488-4.042-0.568
			c-1.041-0.088-2.004-0.103-3.046-0.036l-0.242,0.01c-0.715,0.026-1.764,0.064-3.011,0.307c-0.25,0.04-0.497,0.082-0.743,0.126
			c-3.113-2.353-6.825-3.6-10.896-3.6c-8.797,0-18.081,5.696-29.221,17.926c-7.844,8.618-13.513,16.278-17.529,22.475
			c-0.219-0.037-0.436-0.069-0.656-0.097c-2.546-9.796-8.229-21.871-20.678-32.009C65.067,13.18,53.521,8.052,43.999,8.052
			c-7.951,0-14.15,3.561-17.333,9.646c-0.604,1.155-1.131,2.394-1.54,3.709c-0.492,1.583-0.784,3.268-0.845,4.979
			c-4.944,4.975-11.302,13.789-9.527,25.071c0.316,2,0.796,3.792,1.48,5.518c0.29,0.724,0.625,1.454,0.986,2.173
			c0.892,1.781,1.904,3.425,3.048,4.935h-3.255c-5.246,0-9.5,4.253-9.5,9.5v125.678c0,5.247,4.254,9.5,9.5,9.5h150.331
			c5.246,0,9.5-4.253,9.5-9.5V73.583c0-2.128-0.699-4.092-1.882-5.677c3.641-2.965,6.578-6.262,8.702-9.83
			c4.423-7.427,5.262-15.703,2.427-23.927C183.081,25.404,176.495,19.734,167.534,18.163z"/>
		<path style="fill:#7D7D7D;" d="M166.691,17.321l-0.96-0.204c-0.795-0.174-2.234-0.488-4.042-0.569
			c-1.041-0.087-2.004-0.103-3.047-0.036l-0.241,0.01c-0.715,0.025-1.764,0.063-3.012,0.306c-0.249,0.04-0.497,0.081-0.743,0.126
			c-3.113-2.354-6.825-3.601-10.895-3.601c-8.797,0-18.082,5.696-29.222,17.927C106.686,39.9,101.018,47.56,97,53.757
			c-0.217-0.037-0.436-0.069-0.656-0.097c-2.545-9.796-8.228-21.871-20.678-32.009C64.226,12.338,52.68,7.21,43.156,7.21
			c-7.95,0-14.147,3.562-17.332,9.646c-0.604,1.156-1.133,2.395-1.541,3.709c-0.492,1.584-0.784,3.268-0.844,4.98
			c-4.945,4.974-11.302,13.789-9.528,25.071c0.316,2,0.792,3.794,1.479,5.518c0.289,0.724,0.627,1.453,0.986,2.172
			c0.892,1.781,1.905,3.425,3.048,4.935H16.17c-5.245,0-9.5,4.253-9.5,9.5v125.678c0,5.247,4.255,9.5,9.5,9.5h150.331
			c5.247,0,9.501-4.253,9.501-9.5V72.741c0-2.128-0.7-4.093-1.882-5.676c3.641-2.965,6.577-6.262,8.702-9.83
			c4.422-7.427,5.261-15.703,2.427-23.926C182.238,24.562,175.652,18.892,166.691,17.321z"/>
		<path style="fill:#6E6E6E;" d="M165.849,16.479l-0.96-0.204c-0.795-0.174-2.232-0.488-4.042-0.568
			c-1.041-0.088-2.003-0.103-3.046-0.036l-0.242,0.01c-0.714,0.026-1.764,0.065-3.011,0.307c-0.249,0.039-0.498,0.081-0.743,0.126
			c-3.114-2.353-6.825-3.601-10.896-3.601c-8.797,0-18.081,5.696-29.221,17.927c-7.845,8.617-13.512,16.277-17.53,22.474
			c-0.217-0.037-0.435-0.069-0.655-0.096c-2.545-9.796-8.229-21.871-20.678-32.01c-11.44-9.312-22.987-14.44-32.511-14.44
			c-7.95,0-14.149,3.56-17.332,9.646c-0.604,1.155-1.131,2.394-1.539,3.709c-0.493,1.584-0.784,3.268-0.846,4.979
			c-4.943,4.975-11.301,13.789-9.527,25.071c0.316,1.999,0.792,3.795,1.479,5.518c0.289,0.725,0.626,1.453,0.986,2.173
			c0.892,1.781,1.905,3.425,3.048,4.935h-3.254c-5.246,0-9.5,4.253-9.5,9.5v125.677c0,5.247,4.254,9.5,9.5,9.5H165.66
			c5.246,0,9.5-4.253,9.5-9.5V71.899c0-2.128-0.701-4.093-1.883-5.677c3.641-2.966,6.579-6.262,8.702-9.83
			c4.423-7.428,5.262-15.703,2.428-23.927C181.398,23.719,174.811,18.049,165.849,16.479z"/>
		<path style="fill:#606060;" d="M165.008,15.637l-0.96-0.204c-0.796-0.174-2.234-0.488-4.043-0.568
			c-1.041-0.088-2.004-0.103-3.046-0.036l-0.241,0.01c-0.716,0.026-1.764,0.064-3.012,0.307c-0.25,0.04-0.497,0.082-0.743,0.127
			c-3.113-2.353-6.825-3.6-10.896-3.6c-8.797,0-18.081,5.696-29.221,17.927c-7.844,8.618-13.513,16.277-17.529,22.474
			c-0.218-0.037-0.437-0.069-0.656-0.096c-2.546-9.797-8.229-21.872-20.678-32.01C62.541,10.654,50.995,5.525,41.473,5.525
			c-7.951,0-14.247,3.511-17.333,9.646c-0.623,1.145-1.141,2.392-1.54,3.709c-0.503,1.58-0.784,3.267-0.845,4.979
			c-4.944,4.975-11.301,13.789-9.527,25.071c0.316,1.999,0.796,3.793,1.479,5.518c0.29,0.724,0.623,1.455,0.986,2.173
			c0.884,1.785,1.904,3.425,3.048,4.935h-3.255c-5.246,0-9.5,4.253-9.5,9.5v125.678c0,5.247,4.254,9.5,9.5,9.5h150.331
			c5.246,0,9.5-4.253,9.5-9.5V71.057c0-2.128-0.699-4.093-1.881-5.676c3.64-2.966,6.577-6.262,8.701-9.83
			c4.423-7.427,5.262-15.702,2.428-23.927C180.555,22.877,173.969,17.208,165.008,15.637z"/>
	</g>
	<path style="fill:#FFFFFF;" d="M165.008,15.637l-0.96-0.204c-0.796-0.174-2.234-0.488-4.043-0.568
		c-1.041-0.088-2.004-0.103-3.046-0.036l-0.241,0.01c-0.716,0.026-1.764,0.064-3.012,0.307c-0.25,0.04-0.497,0.082-0.743,0.127
		c-3.113-2.353-6.825-3.6-10.896-3.6c-8.797,0-18.081,5.696-29.221,17.927c-7.844,8.618-13.513,16.277-17.529,22.474
		c-0.218-0.037-0.437-0.069-0.656-0.096c-2.546-9.797-8.229-21.872-20.678-32.01C62.541,10.654,50.995,5.525,41.473,5.525
		c-7.951,0-14.247,3.511-17.333,9.646c-0.623,1.145-1.141,2.392-1.54,3.709c-0.503,1.58-0.784,3.267-0.845,4.979
		c-4.944,4.975-11.301,13.789-9.527,25.071c0.316,1.999,0.796,3.793,1.479,5.518c0.29,0.724,0.623,1.455,0.986,2.173
		c0.884,1.785,1.904,3.425,3.048,4.935h-3.255c-5.246,0-9.5,4.253-9.5,9.5v125.678c0,5.247,4.254,9.5,9.5,9.5h150.331
		c5.246,0,9.5-4.253,9.5-9.5V71.057c0-2.128-0.699-4.093-1.881-5.676c3.64-2.966,6.577-6.262,8.701-9.83
		c4.423-7.427,5.262-15.702,2.428-23.927C180.555,22.877,173.969,17.208,165.008,15.637z"/>
	<g>
		<rect x="14.486" y="71.057" style="fill:#FFC73A;" width="150.331" height="125.678"/>
		<path style="fill:#FFD7C2;" d="M162.656,71.057c0,14.532-3.269,76.56-3.269,95.199c0,21.198-19.813,21.499-26.883,1.769
			c-7.073-19.732,19.727-47.892,12.366-67.829c-7.035-19.056-15.358-22.106,1.681-29.139H40.862
			c17.467,5.076,4.268,10.318-7.9,27.471c-12.959,18.254,11.9,33.242,9.718,53.597c-2.187,20.352-26.796,40.642-26.796,13.542
			c0-23.141,0-78.832,0-94.61h-1.397v125.678h150.331V71.057H162.656z M66.538,132.061c-8.842-21.83-9.914-31.757-2.949-44.435
			c11.484-20.914,12.669-7.358,12.669,22.219C76.258,139.42,75.367,153.888,66.538,132.061z M118.41,106.767
			c-2.907,15.904-15.067,36.817-15.067,26.217c0-10.603,0-34.456,0-52.423C103.343,64.069,121.314,90.863,118.41,106.767z"/>
		<g>
			<path style="fill:#FE0000;" d="M80.046,132.425c0-10.595-0.02-21.199-0.041-31.8c-0.028-9.764,0.693-19.821-0.836-29.567h21.227
				c0.446,0.125-1.311,42.224-1.356,63.062c-0.05,20.75-1.514,41.906,0.268,62.616l0,0H78.971c0.296-0.198,0.47-0.478,0.42-0.825
				C82.262,175.134,80.026,153.329,80.046,132.425z"/>
			<path style="fill:#AE0613;" d="M99.039,134.119c0.017-7.959-0.022-15.926-0.009-23.875c-2.733,27.607-5.895,56.338-6.469,47.676
				c-1.028-15.773,1.721-77.755-2.749-50.77c-4.484,26.986-4.819,68.136-5.836,40.342c-0.819-22.023-1.86-61.135-2.25-76.435h-2.558
				c1.529,9.746,0.808,19.803,0.836,29.567c0.021,10.601,0.041,21.205,0.041,31.8c-0.02,20.904,2.216,42.709-0.655,63.485
				c0.05,0.347-0.124,0.627-0.42,0.825h20.336l0,0C97.525,176.025,98.989,154.869,99.039,134.119z"/>
		</g>
		<g>
			<path style="fill:#FE0000;" d="M120.973,163.268c0.63,7.902,6.032,14.595,11.268,20.528c-6.605-2.897-12.627-6.536-16.436-13.053
				c-0.323-0.532-1.109-0.174-1.307,0.272c-1.992,4.58-0.187,9.427,1.395,13.995c-4.487-3.245-8.344-6.499-11.213-11.684
				c-4.92-8.907-2.949-16.741,0.313-25.783c4.44-12.358,12.63-23.032,16.064-35.825c2.598-9.738-0.425-21.221-5.635-29.57
				c-3.823-6.165-8.687-9.077-14.437-11.092h4.854c10.976,2.568,20.571,8.276,26.289,18.613c7.193,13.004,2.571,31.254-2.481,44.127
				C126.147,142.725,120.196,153.557,120.973,163.268z"/>
			<path style="fill:#FE0000;" d="M52.657,171.547c0.344-0.602-0.299-1.394-0.912-0.828c-5.101,4.75-10.222,7.731-16.534,8.95
				c5.809-3.118,9.732-8.045,12.329-14.751c4.043-10.495,0.969-21.219-2.159-31.517c-1.981-6.498-4.705-12.618-6.281-19.257
				c-2.521-10.62,1.478-18.506,8.358-26.254c5.407-6.112,11.447-10.677,18.848-14.132c2.701-1.26,5.361-2.084,8.025-2.701h1.114
				c-7.028,4.32-12.586,10.832-16.593,18.11c-6.253,11.368-1.896,23.82,1.628,35.302c5.47,17.793,15.55,35.183,3.679,53.157
				c-2.682,4.059-7.451,6.475-11.616,8.609c-4.274,2.206-3.093,1.803-1.242-1.455C53.422,181.045,53.907,175.65,52.657,171.547z"/>
			<g>
				<path style="fill:#BF0000;" d="M114.483,159.788c0,0-7.473,4.805-5.063,15.765c-7.75-7.755-6.678-21.115,5.063-39.01
					c23.51-42.748-3.192-61.447,2.152-60.109c2.947,0.853,6.312,2.913,9.708,5.495c-5.52-5.582-12.66-9.031-20.505-10.872h-4.854
					c5.75,2.015,10.613,4.927,14.437,11.092c5.21,8.35,8.232,19.832,5.635,29.57c-3.435,12.794-11.624,23.467-16.064,35.825
					c-3.262,9.042-5.232,16.876-0.313,25.783c2.869,5.185,6.726,8.439,11.213,11.684c-1.581-4.568-3.387-9.415-1.395-13.995
					c0.197-0.446,0.983-0.804,1.307-0.272c2.753,4.732,6.706,7.941,11.179,10.458C117.655,171.826,114.483,159.788,114.483,159.788z
					"/>
			</g>
			<g>
				<path style="fill:#BF0000;" d="M58.853,89.167c4.007-7.278,9.564-13.79,16.593-18.11h-1.114
					c-2.664,0.617-5.324,1.441-8.025,2.701c-7.4,3.456-13.44,8.021-18.848,14.132c-4.755,5.361-8.13,10.779-8.93,17.108
					c1.86-6.703,6.389-16.809,17.184-21.093c-9.622,11.491-7.22,33.131,4.005,55.579c11.227,22.439,0.808,34.726-3.475,38.725
					c4.01-10.946-2.667-17.087-2.667-17.087s-3.55,10.77-15.508,16.721c-0.899,0.669-1.843,1.287-2.856,1.826
					c6.313-1.219,11.433-4.2,16.534-8.95c0.613-0.566,1.256,0.226,0.912,0.828c1.25,4.103,0.765,9.498-1.356,13.232
					c-1.851,3.258-3.032,3.661,1.242,1.455c4.165-2.135,8.935-4.551,11.616-8.609c11.871-17.974,1.791-35.364-3.679-53.157
					C56.956,112.987,52.6,100.535,58.853,89.167z"/>
			</g>
			<path style="fill:#FE761A;" d="M128.779,90.986c0,0,7.77,15.115-4.332,41.909C117.113,150.179,144.762,114.311,128.779,90.986z"
				/>
			<path style="fill:#FE761A;" d="M45.381,96.597c0,0-4.313,12.532,4.335,35.442C54.461,145.845,32.415,115.186,45.381,96.597z"/>
		</g>
		<g>
			<g>
				<g>
					<g>
						<path style="fill:#B70000;" d="M68.303,58.458C54.423,44.85,43.274,45.886,32.64,49.687
							c-10.628,3.802-10.518-2.193-10.518-2.193l-0.512-0.046c0.18,1.132,0.444,2.282,0.913,3.462
							c7.732,19.249,39.95,18.502,64.384,20.856C86.907,71.766,78.632,68.578,68.303,58.458z"/>
						<g>
							<path style="fill:#BF0000;" d="M68.303,58.458C54.423,44.85,43.274,45.886,32.64,49.687
								c-10.628,3.802-10.518-2.193-10.518-2.193l-0.512-0.046c0.18,1.132,0.444,2.282,0.913,3.462
								c7.732,19.249,39.95,18.502,64.384,20.856C86.907,71.766,78.632,68.578,68.303,58.458z"/>
						</g>
						<path style="fill:#FE0000;" d="M67.985,27.335C45.196,8.787,28.374,13.23,32.336,27.253c0,0-12.55,8.583-10.726,20.194
							l0.512,0.046c0,0-0.11,5.996,10.518,2.193c10.635-3.801,21.783-4.837,35.663,8.771c10.329,10.12,18.604,13.308,18.604,13.308
							S90.766,45.886,67.985,27.335z"/>
					</g>
					<g>
						<g>
							<path style="fill:#A50000;" d="M60.612,38.268c0,0,0.664,0.155,1.765,0.652c0.56,0.222,1.233,0.529,1.949,0.965
								c0.716,0.425,1.591,0.837,2.424,1.447c0.824,0.627,1.723,1.302,2.668,2.022c0.998,0.67,1.824,1.612,2.753,2.515
								c0.892,0.942,1.928,1.817,2.764,2.888c0.824,1.083,1.66,2.184,2.496,3.282c0.812,1.12,1.694,2.186,2.309,3.406
								c0.657,1.184,1.308,2.354,1.933,3.484c0.621,1.132,1.232,2.218,1.727,3.29c0.425,1.102,0.831,2.143,1.197,3.105
								c1.464,3.854,2.312,6.443,2.312,6.443s-1.316-2.421-3.098-6.083c-0.442-0.92-0.913-1.912-1.417-2.965
								c-0.57-1.014-1.268-2.031-1.902-3.125c-0.652-1.086-1.329-2.212-2.007-3.351c-0.613-1.189-1.492-2.219-2.297-3.297
								c-0.803-1.083-1.603-2.167-2.391-3.233c-0.811-1.047-1.756-1.95-2.592-2.895c-0.878-0.9-1.612-1.907-2.522-2.622
								c-0.866-0.769-1.686-1.497-2.442-2.168c-0.783-0.647-1.563-1.146-2.215-1.657c-0.649-0.518-1.255-0.894-1.775-1.179
								C61.24,38.556,60.612,38.268,60.612,38.268z"/>
						</g>
					</g>
					<g>
						<g>
							<path style="fill:#A50000;" d="M32.854,19.102c0,0-0.488,1.047-0.765,2.705c-0.317,1.633-0.341,3.908,0.462,5.948
								c0.168,0.52,0.445,0.995,0.663,1.488c0.297,0.449,0.593,0.89,0.879,1.32c0.664,0.791,1.292,1.533,1.948,2.069
								c0.591,0.599,1.188,0.983,1.567,1.304c0.396,0.308,0.616,0.484,0.616,0.484s-0.248-0.137-0.686-0.374
								c-0.418-0.268-1.118-0.511-1.775-1.079c-0.71-0.499-1.47-1.167-2.194-1.99c-0.32-0.444-0.646-0.907-0.982-1.375
								c-0.246-0.521-0.565-1.025-0.757-1.58c-0.824-2.231-0.7-4.673-0.162-6.317C32.166,20.036,32.854,19.102,32.854,19.102z"/>
						</g>
					</g>
				</g>
				<g>
					<path style="fill:#BF0000;" d="M67.985,27.335C45.196,8.787,28.374,13.23,32.336,27.253c0,0-12.55,8.583-10.726,20.194
						l0.512,0.046c0,0-0.11,5.996,10.518,2.193c10.635-3.801,21.783-4.837,35.663,8.771c10.329,10.12,18.604,13.308,18.604,13.308
						S90.766,45.886,67.985,27.335z M26.779,36.484c5.029-5.587,20.024,0.676,20.024,0.676
						c-11.914-7.998-13.152-20.829-2.355-20.438c9.673,0.358,20.461,8.459,28.471,17.699c7.203,8.302,10.402,20.283,10.402,20.599
						c0,0.313-11.123-15.643-24.639-18.688c-6.283-1.417,2.749,2.904,12.068,13.108c9.333,10.215,9.627,13.947,2.264,6.873
						c-7.368-7.073-20.816-14.5-32.502-12.812C28.931,45.171,21.742,42.07,26.779,36.484z"/>
				</g>
				<g>
					<path style="fill:#BF0000;" d="M43.267,52.39c11.063,0.711,30.971,13.015,28.803,18.187c5.082,0.394,10.109,0.738,14.838,1.19
						c0,0-8.275-3.188-18.604-13.308C54.423,44.85,43.274,45.886,32.64,49.687c-10.628,3.802-10.518-2.193-10.518-2.193
						l-0.512-0.046c0.18,1.132,0.444,2.282,0.913,3.462c0.794,1.979,1.907,3.699,3.179,5.283
						C28.082,53.567,34.557,51.844,43.267,52.39z"/>
				</g>
				<path style="fill:#FE761A;" d="M76.258,41.438c0,0-8.923-16.846-25.862-22.336C33.456,13.608,60.149,23.12,76.258,41.438z"/>
			</g>
			<g>
				<g>
					<path style="fill:#FE0000;" d="M95.975,70.602c0,0,5.457-14.35,23.896-34.609c18.446-20.254,26.815-15.797,30.338-9.639
						c0,0,19.016-7.204,24.374,8.362C183.273,59.937,139.913,77.863,95.975,70.602z"/>
					<g>
						<g>
							<g>
								<path style="fill:#A50000;" d="M95.975,70.602c0,0,1.276-0.201,3.387-0.907c1.059-0.35,2.341-0.778,3.752-1.426
									c1.438-0.572,3.009-1.331,4.693-2.228c1.727-0.805,3.486-1.876,5.325-3.051c1.896-1.085,3.732-2.464,5.647-3.87
									c0.965-0.698,1.938-1.408,2.931-2.127c0.924-0.8,1.861-1.61,2.804-2.428c1.88-1.633,3.831-3.275,5.706-5.02
									c1.887-1.7,3.914-3.352,5.925-4.879c2.016-1.536,4.062-2.972,6.155-4.2c2.051-1.299,4.217-2.267,6.305-3.047
									c2.113-0.734,4.201-1.251,6.173-1.297c1.968-0.165,3.778,0.262,5.268,0.782c1.479,0.595,2.655,1.335,3.524,2.053
									c0.882,0.706,1.496,1.334,1.881,1.804c0.4,0.442,0.613,0.68,0.613,0.68s-0.232-0.22-0.664-0.635
									c-0.413-0.436-1.067-1.014-1.981-1.643c-1.781-1.283-4.844-2.58-8.586-2.178c-1.861,0.118-3.833,0.699-5.828,1.483
									c-1.981,0.839-4.017,1.869-6.014,3.14c-2.022,1.22-4.012,2.661-5.973,4.196c-1.968,1.542-3.883,3.147-5.77,4.886
									c-1.894,1.711-3.869,3.329-5.811,4.974c-0.966,0.814-1.929,1.623-2.876,2.42c-1.016,0.717-2.017,1.422-3.006,2.12
									c-1.946,1.423-3.885,2.717-5.851,3.746c-1.913,1.11-3.737,2.121-5.521,2.87c-0.874,0.396-1.717,0.779-2.517,1.142
									c-0.831,0.291-1.62,0.565-2.36,0.824c-1.467,0.549-2.79,0.882-3.879,1.153C97.255,70.497,95.975,70.602,95.975,70.602z"/>
							</g>
						</g>
						<g>
							<g>
								<path style="fill:#A50000;" d="M142.344,55.462c0,0-2.48,1.571-6.29,3.767c-1.881,1.123-4.289,2.1-6.804,3.249
									c-2.515,1.191-5.335,2.022-8.099,3.053c-2.792,0.941-5.67,1.576-8.32,2.332c-2.696,0.583-5.218,1.091-7.401,1.421
									c-4.354,0.702-7.296,0.788-7.296,0.788s0.715-0.154,1.971-0.432c1.258-0.24,3.028-0.713,5.156-1.206
									c2.144-0.451,4.583-1.241,7.241-1.865c2.607-0.812,5.439-1.509,8.175-2.502c2.743-0.954,5.576-1.712,8.059-2.821
									c2.496-1.075,4.96-1.767,6.922-2.781C139.636,56.599,142.344,55.462,142.344,55.462z"/>
							</g>
						</g>
						<g>
							<g>
								<path style="fill:#A50000;" d="M140.952,33.018c0,0,0.896-1.284,2.648-2.855c1.731-1.578,4.361-3.382,7.315-4.504
									c1.464-0.576,3.012-0.939,4.47-1.16c0.723-0.16,1.441-0.149,2.114-0.184c0.676-0.051,1.311-0.024,1.898,0.034
									c1.178,0.03,2.136,0.261,2.799,0.404c0.666,0.143,1.047,0.221,1.047,0.221s-0.387-0.033-1.066-0.089
									c-0.673-0.079-1.638-0.139-2.791-0.103c-1.151-0.043-2.492,0.144-3.895,0.376c-1.407,0.243-2.895,0.63-4.304,1.217
									c-2.878,1.039-5.479,2.727-7.313,4.123C142.023,31.881,140.952,33.018,140.952,33.018z"/>
							</g>
						</g>
					</g>
				</g>
				<g>
					<path style="fill:#BF0000;" d="M174.583,34.716c-5.358-15.565-24.374-8.362-24.374-8.362
						c-3.523-6.158-11.892-10.615-30.338,9.639c-18.439,20.258-23.896,34.609-23.896,34.609
						C139.913,77.863,183.273,59.937,174.583,34.716z M118.41,53.548c-9.916,9.639-19.567,14.79-15.223,6.453
						c8.935-17.168,25.835-33.776,34.239-36.429C145.811,20.925,141.697,30.933,118.41,53.548z M168.496,41.391
						c-10.52-14.634-29.445-1.09-30.628-3.123c-1.182-2.038,14.225-17.1,28.196-11.511
						C174.476,30.124,173.014,47.679,168.496,41.391z"/>
				</g>
				<g>
					<path style="fill:#BF0000;" d="M163.244,55.462c-14.442,10.604-40.37,11.35-28.375,5.893
						c11.994-5.444,16.252-10.05,16.252-10.05s-14.367,1.867-8.777-4.102c13.294-14.184,25.411-3.806,25.411-3.806
						c-10.749-16.691-31.508,1.525-40.818,10.151c-9.311,8.622-19.574,13.252-19.574,13.252c-3.094,1.29-8.409,2.819-11.317,3.628
						c-0.041,0.115-0.07,0.173-0.07,0.173c39.026,6.444,77.543-6.97,79.609-27.722C174.819,46.225,170.686,49.983,163.244,55.462z"
						/>
				</g>
				<path style="fill:#FE761A;" d="M105.311,59.483c0,0,9.529-18.954,21.673-27.615C139.125,23.209,105.311,59.483,105.311,59.483z"
					/>
				<path style="fill:#FE761A;" d="M142.963,33.018c0,0,6.99-5.379,13.541-6.261c6.546-0.882,8.1,2.356,3.538,2.019
					C155.473,28.433,142.963,33.018,142.963,33.018z"/>
				<path style="fill:#FE761A;" d="M164.817,28.776c-0.362,0.98,1.266,2.533,2.145,1.755
					C167.844,29.756,165.174,27.786,164.817,28.776z"/>
			</g>
			<path style="fill:#E50000;" d="M88.29,71.532c6.237,1.756,14.952,0.511,9.844-6.995C91.791,55.231,79.653,69.095,88.29,71.532z"
				/>
			<path style="fill:#BF0000;" d="M98.134,64.537c-0.063-0.08-0.124-0.125-0.176-0.203c1.884,4.279-3.669,4.986-7.803,3.814
				c-3.438-0.963-2.352-4.407,0.095-6.226c-4.509,1.864-7.478,8.053-1.96,9.61C94.527,73.289,103.242,72.043,98.134,64.537z"/>
		</g>
	</g>
</g>
</svg>
